<svg xmlns="http://www.w3.org/2000/svg" xmlns:xlink="http://www.w3.org/1999/xlink" viewBox="0,0,256,256" width="64px" height="64px" fill-rule="nonzero"><g fill-opacity="0" fill="#dddddd" fill-rule="nonzero" stroke="none" stroke-width="1" stroke-linecap="butt" stroke-linejoin="miter" stroke-miterlimit="10" stroke-dasharray="" stroke-dashoffset="0" font-family="none" font-weight="none" font-size="none" text-anchor="none" style="mix-blend-mode: normal"><path d="M0,256v-256h256v256z" id="bgRectangle"></path></g><g fill="none" fill-rule="nonzero" stroke="none" stroke-width="1" stroke-linecap="butt" stroke-linejoin="miter" stroke-miterlimit="10" stroke-dasharray="" stroke-dashoffset="0" font-family="none" font-weight="none" font-size="none" text-anchor="none" style="mix-blend-mode: normal"><g transform="scale(0.5,0.5)"><rect x="116" y="240" width="280" height="160" fill="#c0e7f9"></rect><path d="M446,31v370h-50v-160v-160v-1.32h-280v1.32v160v160h-50v-370z" fill="#f9d4c5"></path><rect x="116" y="80" width="280" height="160" fill="#bce3f9"></rect><path d="M356,322.72l-18.28,10l-10,18.28l-10,-18.28l-18.29,-10l18.29,-10l10,-18.29l10,18.29z" fill="#ffffff"></path><path d="M214.28,162.72l-18.28,10l-10,18.28l-10,-18.28l-18.28,-10l18.28,-10l10,-18.29l10,18.29z" fill="#ffffff"></path><rect x="86" y="441" width="40" height="40" fill="#f9d4c5"></rect><rect x="386" y="441" width="40" height="40" fill="#f9d4c5"></rect><path d="M466,391v50h-40h-40h-260h-40h-40v-50h20h50h280h50z" fill="#f9d4c5"></path></g></g></svg>